<?xml version="1.0" encoding="UTF-8" standalone="no"?>
<svg
   width="34"
   height="42"
   viewBox="0 0 34 42"
   fill="none"
   version="1.1"
   id="svg1"
   sodipodi:docname="logged-user-image.svg"
   inkscape:version="1.3.2 (091e20e, 2023-11-25)"
   xmlns:inkscape="http://www.inkscape.org/namespaces/inkscape"
   xmlns:sodipodi="http://sodipodi.sourceforge.net/DTD/sodipodi-0.dtd"
   xmlns="http://www.w3.org/2000/svg"
   xmlns:svg="http://www.w3.org/2000/svg">
  <defs
     id="defs1" />
  <sodipodi:namedview
     id="namedview1"
     pagecolor="#ffffff"
     bordercolor="#000000"
     borderopacity="0.25"
     inkscape:showpageshadow="2"
     inkscape:pageopacity="0.0"
     inkscape:pagecheckerboard="true"
     inkscape:deskcolor="#d1d1d1"
     inkscape:zoom="19.428571"
     inkscape:cx="17.011029"
     inkscape:cy="21"
     inkscape:window-width="1876"
     inkscape:window-height="1016"
     inkscape:window-x="1964"
     inkscape:window-y="2187"
     inkscape:window-maximized="1"
     inkscape:current-layer="svg1" />
  <path
     d="M25.4444 9.88889C25.4444 12.2464 24.5079 14.5073 22.8409 16.1743C21.174 17.8413 18.913 18.7778 16.5556 18.7778C14.1981 18.7778 11.9372 17.8413 10.2702 16.1743C8.60317 14.5073 7.66667 12.2464 7.66667 9.88889C7.66667 7.53141 8.60317 5.27049 10.2702 3.60349C11.9372 1.9365 14.1981 1 16.5556 1C18.913 1 21.174 1.9365 22.8409 3.60349C24.5079 5.27049 25.4444 7.53141 25.4444 9.88889ZM16.5556 25.4444C12.43 25.4444 8.47335 27.0833 5.55612 30.0006C2.63888 32.9178 1 36.8744 1 41H32.1111C32.1111 36.8744 30.4722 32.9178 27.555 30.0006C24.6378 27.0833 20.6811 25.4444 16.5556 25.4444Z"
     stroke="white"
     stroke-width="2"
     stroke-linecap="round"
     stroke-linejoin="round"
     id="path1" />
  <path
     style="fill:#ff0000;stroke-width:0.0514706"
     d="M 15.904412,19.731367 C 13.886132,19.542425 12.21998,18.930214 10.720297,17.826515 8.4835052,16.180336 7.0527257,13.668778 6.7456201,10.849455 6.4793194,8.4047327 7.2782112,5.6970457 8.83783,3.758321 9.1569017,3.3616906 9.9466631,2.5667081 10.345588,2.240595 c 1.539795,-1.25875024 3.636163,-2.07890485 5.573661,-2.18056305 2.696631,-0.14148901 5.186946,0.71123057 7.176211,2.45723835 1.438102,1.2622428 2.577885,3.1495112 3.026594,5.0114757 0.447055,1.8551014 0.370993,3.701222 -0.22607,5.486985 -1.245082,3.723931 -4.563767,6.330952 -8.52466,6.69662 -0.536781,0.04955 -1.067238,0.05643 -1.466912,0.01902 z m 1.481808,-1.976458 c 3.545554,-0.382462 6.368068,-3.039633 6.968259,-6.560056 0.08897,-0.521832 0.101173,-0.761371 0.07868,-1.5441177 C 24.39518,8.3286561 24.204132,7.5351721 23.652429,6.4080882 21.740642,2.5024678 17.085718,0.88854768 13.127225,2.758869 11.174914,3.6813031 9.6110242,5.5020736 8.9850187,7.5814643 8.7314287,8.4238098 8.6747149,8.8583698 8.6780158,9.9338235 c 0.00339,1.1043335 0.074033,1.5631315 0.3824117,2.4835795 1.1724325,3.499478 4.6568595,5.733277 8.3257925,5.337506 z"
     id="path2" />
  <path
     style="fill:#ff0000;stroke-width:0.0514706"
     d="M 0.75681535,41.926886 C 0.47801899,41.851681 0.22733653,41.642273 0.1223373,41.396874 0.0252916,41.170063 0.02976102,40.054411 0.13126192,39.169118 0.5707572,35.335831 2.2861373,31.846185 5.0549526,29.152717 10.096042,24.248811 17.652984,23.078201 23.939766,26.227361 c 4.602217,2.305332 7.891488,6.644667 8.843879,11.667189 0.236937,1.24951 0.374584,3.013366 0.26182,3.355045 -0.07632,0.231265 -0.316788,0.516842 -0.536561,0.637225 C 32.359792,41.9685 31.315689,41.9749 16.676471,41.98387 3.9934221,41.99167 0.95658521,41.98077 0.75681535,41.92689 Z M 31.066928,39.607045 C 30.97848,38.516979 30.6524,37.088492 30.230512,35.942899 29.94853,35.177201 29.312779,33.879386 28.898756,33.224265 28.125355,32.000488 26.936046,30.655181 25.8125,29.733194 21.873728,26.501018 16.535356,25.564906 11.683824,27.255658 8.4599159,28.379184 5.6332572,30.735871 3.907605,33.738971 2.8883956,35.512669 2.2455445,37.552734 2.0302491,39.696691 l -0.034888,0.347427 H 16.548876 31.102392 Z"
     id="path3" />
</svg>
