<?xml version="1.0" encoding="utf-8"?>
<!-- Generator: Adobe Illustrator 27.5.0, SVG Export Plug-In . SVG Version: 6.00 Build 0)  -->
<svg version="1.1" xmlns="http://www.w3.org/2000/svg" xmlns:xlink="http://www.w3.org/1999/xlink" x="0px" y="0px"
	 viewBox="0 0 750 500" style="enable-background:new 0 0 750 500;" xml:space="preserve">
<g id="Capa_2">
	<rect x="-0.12" y="-0.08" style="fill-rule:evenodd;clip-rule:evenodd;fill:#A1BBF5;" width="750.241" height="500.16"/>
</g>
<g id="OBJECTS">
	<g>
		<path style="opacity:0.5;fill-rule:evenodd;clip-rule:evenodd;fill:#F5F7FF;" d="M750.12,268.9V155.203
			c-12.475-6.305-28.096-8.823-42.655-7.591c-13.129-23.502-56.657-34.827-83.897-14.247
			c-21.134-29.334-72.695-25.931-83.646,10.612c-23.366-21.049-58.902-18.14-72.102,6.773c-22.591-9.769-53.655-10.063-75.002,1.092
			c-26.804-26.246-70.783-34.58-98.806-10.605c-23.887-24.182-69.387-22.446-84.572,7.995c-14.162-2.309-30.224-0.572-41.782,6.236
			c-15.046-20.114-51.353-27.206-78.602-21.436C36.054,99.169,3.075,135.828-0.12,146.099V257.87L750.12,268.9z"/>
		<path style="fill-rule:evenodd;clip-rule:evenodd;fill:#F5F7FF;" d="M-0.12,287.68V173.983c12.475-6.122,28.096-8.41,42.655-6.964
			c13.129-23.308,56.657-33.994,83.896-13.014c21.134-29.024,72.695-24.862,83.646,11.842c23.366-20.706,58.902-17.275,72.102,7.833
			c22.591-9.437,53.655-9.274,75.002,2.194c26.804-25.852,70.783-33.539,98.806-9.152c23.887-23.831,69.387-21.426,84.572,9.238
			c14.162-2.101,30.224-0.128,41.781,6.85c15.046-19.893,51.353-26.451,78.602-20.281c53.005-34.083,85.984,3.062,89.179,13.379
			V287.68H-0.12z"/>
		<g>
			<path style="fill-rule:evenodd;clip-rule:evenodd;fill:#6C84CC;" d="M-0.12,325.481c8.385-3.296,18.04-5.779,29.902-6.612
				c48.773-3.428,54.7,14.994,80.778,15.284c24.485,0.272,19.607-13.822,62.91-15.584c27.816-1.132,54.085,31.069,89.513,31.48
				c29.29,0.34,62.33-36.806,93.317-38.003c24.103-0.931,44.416,20.614,72.369,21.927c13.742,0.645,56.323-19.802,84.637-18.692
				c57.997,2.273,84.811,41.621,125.468,39.512c37.885-1.965,49.702-32.538,97.892-35.925c4.405-0.309,8.889,0.639,13.453,2.426
				V285.56H113.852H70.496H-0.12V325.481z"/>
			<path style="fill-rule:evenodd;clip-rule:evenodd;fill:#6C84CC;" d="M108.297,330.166c0.74,1.372,1.445,6.417,1.656,11.015
				c-13.211,0.202-14.453,6.798-13.85,8.468c0.871,2.414,3.323,3.64,5.755,2.639c-5.134,7.193-3.674,16.232-0.898,18.254
				c2.296,1.673,6.211,1.16,7.914-1.102c1.512,5.254,7.025,5.332,9.194,4.263c4.731-2.332,6.194-10.514,0.108-17.714
				c2.65,1.506,6.578,0.64,7.806-1.117c2.153-3.078-2.311-12.879-13.576-13.645c0.227-4.231,0.716-9.239,1.631-10.717
				C115.194,328.64,107.567,328.813,108.297,330.166z"/>
			<path style="fill-rule:evenodd;clip-rule:evenodd;fill:#6C84CC;" d="M259.374,345.365c0.869,1.565,1.77,7.555,2.032,12.73
				c-13.093,0.857-18.529,13.647-14.932,17.663c1.245,1.39,5.558,1.768,8.24-0.074c-5.439,7.554-4.885,15.434-1.744,17.413
				c1.82,1.146,5.169,0.812,7.009-1.632c1.635,7.335,7.52,12.381,12.036,10.348c8.833-3.976,4.598-16.442-1.981-23.121
				c2.766,1.061,6.162,0.662,7.437-0.793c3.826-4.365-2.066-19.146-13.485-19.818c0.149-4.715,0.583-10.656,1.599-12.344
				C266.803,343.716,258.561,343.902,259.374,345.365z"/>
			<path style="fill-rule:evenodd;clip-rule:evenodd;fill:#6C84CC;" d="M286.194,334.262c0.825,1.529,1.611,7.155,1.846,12.282
				c-14.73,0.226-16.114,7.58-15.443,9.442c0.971,2.691,3.706,4.058,6.417,2.943c-5.725,8.02-4.096,18.098-1.002,20.353
				c2.56,1.865,6.926,1.293,8.824-1.228c1.686,5.858,7.833,5.945,10.251,4.754c5.275-2.6,6.906-11.723,0.12-19.75
				c2.955,1.679,7.334,0.714,8.704-1.245c2.4-3.432-2.577-14.36-15.137-15.215c0.253-4.718,0.799-10.301,1.818-11.949
				C293.885,332.56,285.381,332.753,286.194,334.262z"/>
			<path style="fill-rule:evenodd;clip-rule:evenodd;fill:#6C84CC;" d="M461.277,325.215c-0.792,1.469-1.547,6.871-1.773,11.794
				c14.145,0.217,15.475,7.279,14.829,9.067c-0.933,2.584-3.558,3.897-6.162,2.826c5.497,7.702,3.934,17.38,0.962,19.545
				c-2.458,1.791-6.651,1.242-8.474-1.18c-1.619,5.626-7.522,5.71-9.844,4.565c-5.066-2.497-6.632-11.257-0.115-18.966
				c-2.838,1.612-7.043,0.685-8.359-1.195c-2.305-3.296,2.475-13.791,14.536-14.611c-0.243-4.531-0.767-9.892-1.746-11.475
				C453.891,323.582,462.057,323.766,461.277,325.215z"/>
			<path style="fill-rule:evenodd;clip-rule:evenodd;fill:#6C84CC;" d="M615.25,363.777c-11.813,1-16.539,13.668-12.366,16.294
				c2.516,1.583,5.388,1.428,8.278-1.138c-2.742,10.465,3.278,19.784,11.819,15.062c4.695-2.595,1.818-14.433-2.051-21.426
				c2.639,3.295,7.517,4.839,8.559,2.399c1.854-4.346-0.564-11.225-12.074-11.267c-0.337-4.803,0.56-15.06,1.562-16.875
				c0.695-1.26-6.406-1.421-5.351,0.322C614.888,349.232,615.269,360.278,615.25,363.777z"/>
			<path style="fill-rule:evenodd;clip-rule:evenodd;fill:#6C84CC;" d="M591.242,340.76c0.693,1.285,1.354,6.015,1.552,10.325
				c-12.383,0.19-13.547,6.372-12.982,7.937c0.817,2.262,3.115,3.411,5.395,2.474c-4.812,6.743-3.444,15.214-0.842,17.11
				c2.152,1.568,5.822,1.087,7.418-1.033c1.417,4.925,6.585,4.998,8.618,3.996c4.435-2.186,5.806-9.854,0.101-16.603
				c2.484,1.411,6.166,0.6,7.317-1.047c2.018-2.885-2.167-12.072-12.725-12.79c0.213-3.966,0.671-8.659,1.529-10.045
				C597.707,339.329,590.558,339.492,591.242,340.76z"/>
		</g>
		<g>
			<path style="fill-rule:evenodd;clip-rule:evenodd;fill:#4A6896;" d="M-0.12,355.161c35.69,1.202,73.275-51.482,105.011-53.732
				c27.753-1.968,52.048,24.096,87.476,24.508c29.29,0.34,62.33-36.806,93.317-38.003c24.103-0.931,44.416,20.614,72.369,21.926
				c13.742,0.645,56.323-19.802,84.637-18.692c57.997,2.274,84.811,41.622,125.468,39.513c37.885-1.965,49.702-32.539,97.892-35.926
				c25.249-1.775,53.061,37.704,84.07,40.24v-73.548H-0.12V355.161z"/>
			<path style="fill-rule:evenodd;clip-rule:evenodd;fill:#4A6896;" d="M88.386,301.864c-1.265,2.277-2.576,10.992-2.956,18.522
				c19.049,1.247,26.958,19.856,21.724,25.699c-1.812,2.022-8.086,2.572-11.989-0.108c7.913,10.991,7.107,22.456,2.537,25.334
				c-2.648,1.668-7.52,1.182-10.198-2.375c-2.378,10.672-10.94,18.013-17.511,15.056c-12.852-5.785-6.69-23.921,2.882-33.638
				c-4.024,1.543-8.965,0.963-10.82-1.154c-5.567-6.35,3.006-27.856,19.619-28.833c-0.216-6.86-0.848-15.505-2.326-17.96
				C77.577,299.465,89.568,299.736,88.386,301.864z"/>
			<path style="fill-rule:evenodd;clip-rule:evenodd;fill:#4A6896;" d="M642.41,291.068c1.45,2.688,2.832,12.578,3.246,21.589
				c-25.893,0.397-28.327,13.324-27.146,16.597c1.707,4.731,6.513,7.134,11.281,5.173c-10.063,14.099-7.201,31.814-1.761,35.777
				c4.5,3.278,12.174,2.274,15.512-2.159c2.964,10.298,13.77,10.451,18.02,8.356c9.273-4.571,12.14-20.607,0.211-34.719
				c5.195,2.951,12.893,1.255,15.301-2.188c4.219-6.033-4.53-25.244-26.609-26.745c0.445-8.293,1.404-18.107,3.196-21.005
				C655.93,288.077,640.981,288.415,642.41,291.068z"/>
			<path style="fill-rule:evenodd;clip-rule:evenodd;fill:#4A6896;" d="M412.935,276.021c-1.45,2.688-2.832,12.578-3.246,21.59
				c25.893,0.397,28.327,13.324,27.146,16.597c-1.707,4.731-6.513,7.134-11.281,5.173c10.063,14.099,7.201,31.814,1.761,35.777
				c-4.5,3.278-12.174,2.274-15.512-2.159c-2.964,10.298-13.77,10.451-18.02,8.356c-9.273-4.571-12.14-20.607-0.211-34.719
				c-5.195,2.951-12.893,1.255-15.301-2.188c-4.219-6.033,4.53-25.244,26.608-26.745c-0.445-8.293-1.404-18.107-3.196-21.005
				C399.415,273.03,414.365,273.368,412.935,276.021z"/>
			<path style="fill-rule:evenodd;clip-rule:evenodd;fill:#4A6896;" d="M359.182,318.777c-23.005,1.947-32.207,26.616-24.081,31.731
				c4.899,3.083,10.492,2.78,16.12-2.215c-5.34,20.38,6.383,38.527,23.016,29.331c9.142-5.054,3.541-28.106-3.993-41.726
				c5.139,6.417,14.64,9.423,16.667,4.672c3.611-8.464-1.098-21.86-23.513-21.941c-0.656-9.353,1.091-29.328,3.042-32.863
				c1.354-2.454-12.475-2.768-10.42,0.626C358.478,290.451,359.22,311.963,359.182,318.777z"/>
			<path style="fill-rule:evenodd;clip-rule:evenodd;fill:#4A6896;" d="M496.337,332.964l-0.01,0.014
				c-0.125,0.169-0.248,0.339-0.37,0.51l-0.023,0.033c-0.117,0.165-0.232,0.332-0.345,0.499l-0.035,0.051
				c-0.108,0.16-0.214,0.322-0.318,0.483l-0.047,0.073c-0.101,0.157-0.199,0.315-0.296,0.473l-0.053,0.086
				c-0.093,0.152-0.184,0.305-0.273,0.458l-0.063,0.108c-0.087,0.149-0.171,0.299-0.254,0.448l-0.064,0.115
				c-0.081,0.147-0.16,0.295-0.238,0.443l-0.065,0.123c-0.075,0.145-0.149,0.289-0.221,0.434l-0.069,0.138
				c-0.068,0.138-0.134,0.275-0.199,0.412l-0.075,0.16c-0.062,0.133-0.122,0.266-0.182,0.399l-0.075,0.169
				c-0.057,0.13-0.112,0.259-0.166,0.388l-0.074,0.179c-0.052,0.126-0.102,0.252-0.152,0.378l-0.071,0.184
				c-0.047,0.124-0.094,0.247-0.139,0.37l-0.069,0.19c-0.043,0.121-0.085,0.242-0.125,0.362l-0.065,0.197
				c-0.037,0.113-0.073,0.226-0.108,0.339l-0.066,0.218c-0.033,0.109-0.065,0.219-0.095,0.327c-0.02,0.073-0.04,0.145-0.06,0.217
				c-0.029,0.106-0.057,0.212-0.083,0.317c-0.018,0.073-0.035,0.145-0.053,0.218c-0.025,0.105-0.05,0.21-0.073,0.313
				c-0.017,0.074-0.032,0.147-0.047,0.22c-0.021,0.1-0.041,0.198-0.06,0.297c-0.014,0.075-0.028,0.149-0.041,0.224
				c-0.017,0.097-0.034,0.194-0.05,0.291c-0.012,0.074-0.022,0.148-0.033,0.222c-0.013,0.092-0.027,0.185-0.039,0.276
				c-0.01,0.079-0.018,0.156-0.027,0.234c-0.009,0.086-0.019,0.172-0.027,0.256c-0.007,0.076-0.013,0.151-0.018,0.227
				c-0.007,0.086-0.013,0.173-0.017,0.258c-0.004,0.075-0.007,0.148-0.009,0.221c-0.003,0.081-0.006,0.163-0.008,0.243
				c-0.001,0.077,0,0.152,0,0.228c0.001,0.076,0.001,0.152,0.003,0.226c0.002,0.075,0.006,0.148,0.01,0.221
				c0.004,0.075,0.007,0.15,0.012,0.224c0.005,0.073,0.013,0.144,0.02,0.215c0.007,0.069,0.013,0.138,0.021,0.206
				c0.009,0.075,0.021,0.148,0.031,0.221c0.01,0.064,0.018,0.128,0.03,0.19c0.012,0.073,0.028,0.143,0.043,0.214
				c0.012,0.06,0.024,0.121,0.038,0.18c0.016,0.069,0.035,0.135,0.053,0.203c0.016,0.058,0.031,0.118,0.048,0.175
				c0.02,0.066,0.043,0.129,0.065,0.193c0.019,0.055,0.036,0.11,0.056,0.163c0.025,0.066,0.053,0.128,0.08,0.192
				c0.021,0.049,0.041,0.099,0.063,0.146c0.029,0.063,0.062,0.123,0.094,0.184c0.023,0.045,0.045,0.091,0.069,0.134
				c0.034,0.061,0.072,0.118,0.109,0.176c0.025,0.04,0.049,0.082,0.075,0.121c0.039,0.058,0.083,0.113,0.125,0.168
				c0.027,0.036,0.053,0.073,0.081,0.107c0.052,0.065,0.109,0.124,0.166,0.185c0.021,0.022,0.039,0.046,0.06,0.067
				c0.079,0.081,0.162,0.157,0.249,0.229c2.646,2.204,6.288,1.62,9.733-0.239c-0.115,0.124-0.23,0.25-0.344,0.377l-0.109,0.121
				c-0.09,0.101-0.181,0.202-0.271,0.303l-0.088,0.1c-0.113,0.128-0.225,0.257-0.337,0.387l-0.096,0.112
				c-0.086,0.1-0.172,0.201-0.257,0.302l-0.109,0.13c-0.095,0.113-0.189,0.226-0.283,0.34l-0.062,0.075
				c-0.111,0.134-0.22,0.27-0.33,0.406l-0.112,0.14c-0.077,0.096-0.153,0.193-0.229,0.289l-0.119,0.152
				c-0.094,0.121-0.188,0.243-0.282,0.366l-0.112,0.147c-0.082,0.108-0.164,0.217-0.245,0.327l-0.123,0.167
				c-0.066,0.09-0.132,0.18-0.198,0.271l-0.129,0.178c-0.093,0.13-0.186,0.26-0.277,0.391l-0.149,0.215l-0.154,0.224l-0.147,0.217
				l-0.162,0.242c-0.07,0.105-0.14,0.211-0.209,0.317c-0.063,0.096-0.125,0.192-0.187,0.289l-0.133,0.211l-0.145,0.231l-0.142,0.23
				l-0.12,0.197c-0.094,0.157-0.187,0.313-0.279,0.47l-0.092,0.158c-0.054,0.093-0.107,0.186-0.159,0.279l-0.086,0.154
				c-0.177,0.317-0.348,0.636-0.513,0.955l-0.076,0.149c-0.05,0.099-0.1,0.198-0.149,0.297l-0.048,0.098
				c-0.171,0.348-0.333,0.698-0.487,1.047l-0.026,0.059c-0.162,0.371-0.314,0.742-0.455,1.112l-0.004,0.009
				c-0.047,0.124-0.092,0.247-0.137,0.37l-0.01,0.03c-0.132,0.369-0.253,0.738-0.362,1.105l-0.01,0.033
				c-0.148,0.502-0.273,1.001-0.373,1.496l-0.001,0.003c-1.169,5.783,1.077,11.011,10.357,13.217
				c18.474,4.39,22.456-18.959,18.826-31.06c3.341,2.295,7.846,1.701,9.397,0.34c4.719-4.138-0.101-19.967-13.996-23.456
				l-0.044-0.012l-0.188-0.046c-0.086-0.02-0.171-0.04-0.257-0.06c-0.171-0.039-0.344-0.076-0.518-0.111l-0.212-0.042
				c-0.196-0.038-0.394-0.073-0.594-0.106l-0.148-0.024c-0.22-0.035-0.443-0.066-0.667-0.095l-0.099-0.012
				c-0.241-0.03-0.484-0.056-0.729-0.078l-0.058-0.005l-0.165-0.014c0.3-6.456,1.399-13.949,2.477-15.903
				c0.35-0.635-0.668-1.076-2.078-1.276l-0.005-0.001c-0.079-0.011-0.16-0.022-0.241-0.031l-0.008-0.001
				c-0.12-0.014-0.241-0.026-0.365-0.037l-0.042-0.003l-0.109-0.009l-0.026-0.002c-0.074-0.005-0.148-0.01-0.223-0.014l-0.051-0.003
				c-0.119-0.007-0.24-0.011-0.361-0.014l-0.047-0.001c-0.081-0.002-0.162-0.003-0.244-0.004h-0.005h-0.128h-0.027
				c-0.071,0.001-0.141,0.001-0.212,0.003l-0.055,0.001l-0.112,0.003l-0.051,0.002c-0.074,0.003-0.147,0.006-0.221,0.01
				l-0.019,0.001l-0.124,0.008l-0.06,0.004l-0.148,0.011l-0.092,0.008l-0.089,0.008l-0.132,0.013l-0.076,0.009l-0.109,0.013
				l-0.079,0.01l-0.14,0.02l-0.056,0.008l-0.116,0.019l-0.055,0.01c-0.05,0.009-0.098,0.018-0.146,0.027l-0.05,0.01l-0.108,0.023
				l-0.053,0.012c-0.047,0.01-0.093,0.022-0.139,0.033l-0.044,0.012l-0.108,0.029l-0.039,0.011c-0.045,0.013-0.089,0.026-0.132,0.04
				l-0.035,0.012c-0.04,0.013-0.079,0.027-0.117,0.04l-0.017,0.006c-0.042,0.015-0.082,0.031-0.121,0.047l-0.034,0.014
				c-0.035,0.015-0.069,0.03-0.102,0.045l-0.021,0.01c-0.034,0.017-0.068,0.033-0.1,0.051l-0.028,0.015
				c-0.069,0.038-0.133,0.078-0.192,0.121l-0.021,0.015c-0.029,0.021-0.056,0.043-0.081,0.065l-0.007,0.006
				c-0.023,0.021-0.045,0.041-0.065,0.063l-0.016,0.017c-0.022,0.023-0.042,0.047-0.061,0.072l-0.007,0.009
				c-0.017,0.022-0.032,0.046-0.046,0.069l-0.009,0.014c-0.014,0.025-0.027,0.052-0.038,0.078l-0.006,0.017
				c-0.009,0.024-0.017,0.047-0.023,0.072l-0.003,0.013c-0.007,0.028-0.011,0.056-0.014,0.085l-0.001,0.018
				c-0.002,0.026-0.002,0.053-0.001,0.08l0.001,0.012c0.002,0.03,0.006,0.061,0.012,0.092l0.005,0.022
				c0.007,0.029,0.014,0.058,0.024,0.088l0.003,0.01c0.011,0.033,0.025,0.066,0.041,0.1l0.01,0.022
				c0.017,0.034,0.035,0.069,0.057,0.105c0.019,0.031,0.037,0.064,0.056,0.097l0.017,0.032l0.038,0.072l0.019,0.039l0.036,0.074
				l0.018,0.038l0.035,0.079l0.022,0.05l0.026,0.062l0.027,0.066l0.029,0.075l0.019,0.049c0.034,0.091,0.068,0.186,0.101,0.286
				l0.01,0.029l0.04,0.125l0.01,0.034l0.039,0.13l0.008,0.027l0.043,0.152l0.003,0.008l0.046,0.167l0.003,0.01l0.042,0.162
				l0.006,0.023c0.061,0.245,0.121,0.505,0.178,0.778l0.004,0.019l0.039,0.193l0.002,0.009c0.027,0.138,0.054,0.28,0.081,0.424
				l0.002,0.012c0.04,0.218,0.078,0.442,0.115,0.673l0.007,0.045l0.03,0.187l0.006,0.039c0.023,0.151,0.046,0.304,0.068,0.46
				l0.002,0.016c0.046,0.323,0.09,0.655,0.132,0.995l0.008,0.069l0.022,0.178l0.007,0.06c0.03,0.255,0.059,0.514,0.087,0.777
				l0.001,0.005c0.038,0.357,0.074,0.722,0.109,1.09l0.003,0.032c0.015,0.159,0.029,0.319,0.043,0.48l0.012,0.136l0.002,0.023
				l0.031,0.375l0.03,0.376l0.009,0.122l0.01,0.138l0.013,0.176l0.005,0.071c0.023,0.32,0.046,0.641,0.067,0.964l0.008,0.131
				c0.047,0.734,0.088,1.47,0.124,2.197c0.029,0.596,0.055,1.186,0.077,1.763l0.001,0.035l0.017,0.463
				C505.141,324.187,499.901,328.163,496.337,332.964z"/>
			<path style="fill-rule:evenodd;clip-rule:evenodd;fill:#4A6896;" d="M536.627,318.643c1.265,2.277,2.576,10.992,2.956,18.522
				c-19.049,1.247-26.958,19.856-21.724,25.699c1.812,2.023,8.086,2.573,11.989-0.108c-7.913,10.991-7.107,22.456-2.537,25.334
				c2.648,1.668,7.52,1.182,10.198-2.375c2.378,10.672,10.94,18.013,17.511,15.056c12.852-5.785,6.689-23.921-2.883-33.638
				c4.024,1.543,8.965,0.963,10.82-1.154c5.567-6.35-3.005-27.856-19.619-28.833c0.217-6.86,0.848-15.505,2.326-17.96
				C547.435,316.243,535.445,316.514,536.627,318.643z"/>
			<path style="fill-rule:evenodd;clip-rule:evenodd;fill:#4A6896;" d="M158.846,346.992c-9.417,14.385-4.238,27.078,15.573,16.816
				c-9.355,10.129-10.349,23.196,4.487,26.642c17.962,4.173,24.508-15.065,20.101-29.755c4.056,2.786,9.524,2.064,11.407,0.413
				c5.729-5.023-0.123-24.239-16.99-28.474l-4.464-0.734c0.364-7.838,1.698-16.933,3.007-19.306
				c0.845-1.531-4.406-1.738-5.618-1.671c-0.997,0.055-4.87,0.427-3.772,2.235c1.864,3.071,2.361,15.266,2.484,18.693
				C177.484,332.362,162.823,340.919,158.846,346.992z"/>
			<path style="fill-rule:evenodd;clip-rule:evenodd;fill:#4A6896;" d="M138.618,303.452c1.112,2.063,2.173,9.652,2.491,16.568
				c-19.87,0.305-21.738,10.225-20.832,12.737c1.31,3.63,4.999,5.474,8.657,3.97c-7.723,10.82-5.526,24.415-1.352,27.456
				c3.453,2.516,9.343,1.745,11.904-1.657c2.275,7.903,10.567,8.02,13.829,6.412c7.116-3.507,9.317-15.814,0.162-26.643
				c3.987,2.264,9.894,0.963,11.742-1.679c3.238-4.63-3.477-19.372-20.419-20.524c0.342-6.364,1.077-13.896,2.453-16.119
				C148.994,301.156,137.521,301.416,138.618,303.452z"/>
		</g>
		<g>
			<path style="fill-rule:evenodd;clip-rule:evenodd;fill:#223857;" d="M512.037,314.59c5.163,15.745,67.947,35.337,89.217,42.103
				c51.789,16.471,92.869,5.257,148.866,10.488v-52.59H512.037z"/>
			<path style="fill-rule:evenodd;clip-rule:evenodd;fill:#223857;" d="M550.81,324.981c-1.709,3.17-3.34,14.832-3.828,25.458
				c30.533,0.468,33.404,15.712,32.011,19.572c-2.013,5.578-7.681,8.412-13.302,6.1c11.866,16.626,8.491,37.516,2.077,42.189
				c-5.307,3.866-14.356,2.681-18.292-2.547c-3.495,12.144-16.237,12.324-21.25,9.854c-10.934-5.39-14.316-24.299-0.249-40.94
				c-6.126,3.48-15.203,1.479-18.042-2.581c-4.976-7.114,5.342-29.768,31.377-31.538c-0.525-9.78-1.656-21.353-3.769-24.769
				C534.867,321.454,552.496,321.853,550.81,324.981z"/>
		</g>
		<g>
			<path style="fill-rule:evenodd;clip-rule:evenodd;fill:#223857;" d="M393.828,349.444
				c-4.532,48.134-96.543,50.177-133.739,62.997C168.506,444.008,92.174,484.809-0.12,475.224v-106.71L393.828,349.444z"/>
			<g>
				<path style="fill-rule:evenodd;clip-rule:evenodd;fill:#223857;" d="M366.608,461.371c-0.566,2.227-1.287,2.663-3.313,3.904
					c-5.331,0.93-12.101-0.314-14.097-1.485c-3.926-2.304-0.174-5.001,3.21-10.394c0.547-0.872,1.752-3.719,1.838-5.049
					c0.353-5.466-1.558-4.769-3.939-12.154c-1.861-5.772-1.477-20.695-2.46-23.402c-1.555-4.286,2.914-6.389,4.275-3.566
					c3.622,7.511,4.976,10.914,7.006,19.091c-0.401-6.288,0.359-9.454,0.154-15.828c-0.225-6.983,5.321-6.464,5.476-1.638
					c0.059,1.83,5.26,15.996,4.371,24.691c-0.582,5.694-1.5,10.954-1.897,12.587C365.817,453.94,366.64,461.246,366.608,461.371z"/>
				<path style="fill-rule:evenodd;clip-rule:evenodd;fill:#223857;" d="M357.684,464.179c1.775,0,2.593,1.155,3.655,1.964
					c1.062,0.81,2.023,0.58,2.885,1.514c0.862,0.934,0.832,2.204,0.832,3.372c0,1.168,1.372,1.788,1.372,3.699
					c0,1.912-1.575,2.817-1.884,3.701c-0.31,0.883,0.014,1.586-0.979,2.685c-0.656,0.727-1.982,0.892-2.702,1.126
					c-0.712,0.231-1.545,1.087-3.137,0.966c-1.261-0.096-1.993-0.792-2.481-0.945c-0.73-0.228-2.649-0.069-3.39-0.837
					c-0.977-1.013-0.727-1.741-1.491-3.04c-0.764-1.299-2.013-1.966-2.013-3.877c0-1.912,1.649-2.31,1.649-3.478
					c0-1.168,0.074-2.367,0.868-3.233c0.794-0.866,1.567-0.511,2.96-1.321C355.221,465.666,355.578,464.179,357.684,464.179z"/>
				<path style="fill-rule:evenodd;clip-rule:evenodd;fill:#223857;" d="M367.012,460.751c4.144,1.527,7.12,2.946,10.693,5.085
					c1.814,1.086,0.592,3.863-1.828,3.148c-1.998-0.59-6.877-2.644-9.982-2.733c-1.831-0.052-3.799-0.785-5.148-2.157
					C357.94,461.206,360.775,458.449,367.012,460.751z"/>
				<path style="fill-rule:evenodd;clip-rule:evenodd;fill:#223857;" d="M358.554,454.193c1.17,2.776,1.345,5.274,0.875,6.361
					C360.608,458.289,361.206,455.569,358.554,454.193z"/>
				<path style="fill-rule:evenodd;clip-rule:evenodd;fill:#223857;" d="M364.289,451.841c-2.17-0.392-2.953,0.301-3.948,0.241
					c-0.994-0.06-2.592-1.085-5.455-0.723C356.845,450.425,362.511,450.365,364.289,451.841z"/>
				<path style="fill-rule:evenodd;clip-rule:evenodd;fill:#223857;" d="M361.709,391.858c-0.596-2.93-0.289-5.454,0.394-7.873
					c0.683-2.419-5.475-2.316-5.376-0.285c0.098,2.03,1.329,4.018,1.834,8.243C359.027,395.853,362.431,395.412,361.709,391.858z"/>
				<path style="fill-rule:evenodd;clip-rule:evenodd;fill:#223857;" d="M350.552,456.916c-2.991-3.25-4.896-4.662-8.235-7.152
					c-1.695-1.264-3.797,0.924-2.214,2.889c1.307,1.623,4.923,4.765,6.188,7.602c0.746,1.674,2.079,3.307,3.861,4.033
					C353.75,465.754,354.984,461.792,350.552,456.916z"/>
				<path style="fill-rule:evenodd;clip-rule:evenodd;fill:#223857;" d="M345.852,392.411c-0.81-3.392-0.593-6.185-0.644-8.463
					c-0.05-2.278-5.674-2.065-5.427-0.286c0.247,1.779,1.514,4.194,2.924,8.819C344.114,397.106,346.872,395.998,345.852,392.411z"
					/>
				<path style="fill-rule:evenodd;clip-rule:evenodd;fill:#223857;" d="M350.585,441.058c-2.689,1-8.236,5.941-10.455,8.658
					c-1.537,1.883,0.791,4.676,2.721,2.931c3.251-2.939,7.461-8.583,9.155-9.897C352.371,441.75,351.899,441.687,350.585,441.058z"
					/>
				<path style="fill-rule:evenodd;clip-rule:evenodd;fill:#223857;" d="M370.071,477.472c2.755-1.507,5.988-4.607,8.306-7.241
					c1.606-1.825,0.243-5.242-1.75-3.57c-3.357,2.817-6.185,8.129-7.926,9.381C368.693,476.598,369.29,477.154,370.071,477.472z"/>
				<path style="fill-rule:evenodd;clip-rule:evenodd;fill:#223857;" d="M355.141,469.922l4.365,0.52l0.601-5.375
					c0.249-2.234-4.13-2.621-4.365-0.52L355.141,469.922z"/>
				<path style="fill-rule:evenodd;clip-rule:evenodd;fill:#223857;" d="M355.347,468.482l4.456-0.292l0.015-0.538
					c-0.71-1.601-2.537-2.012-4.165-2.221L355.347,468.482z"/>
				<path style="fill-rule:evenodd;clip-rule:evenodd;fill:#223857;" d="M357.512,481.476c8.229,0.297,6.689-14.52,0.626-14.326
					C351.656,467.357,348.568,481.154,357.512,481.476z"/>
				<path style="fill-rule:evenodd;clip-rule:evenodd;fill:#223857;" d="M353.665,440.613c1.314-0.908,2.566-1.573,2.697-1.201
					c0.202,0.573-2.093,1.616-2.781,2.566c0.401-0.194,1.098-0.49,1.246-0.253c0.512,0.816-4.431,2.422-5.148,1.339
					c-1.198-1.807,4.239-6.03,4.763-5.341c0.186,0.244-0.565,0.428-1.507,1.492c1.09-0.91,2.36-1.876,2.681-1.372
					c0.178,0.28-1.597,1.277-2.377,2.084c1.058-0.687,2.905-1.981,3.063-1.589C356.508,438.847,354.555,439.706,353.665,440.613z"/>
				<path style="fill-rule:evenodd;clip-rule:evenodd;fill:#223857;" d="M366.418,477.232c-1.515,0.507-2.902,0.797-2.925,0.402
					c-0.035-0.607,2.46-0.969,3.386-1.691c-0.439,0.075-1.191,0.165-1.268-0.104c-0.264-0.926,4.93-1.092,5.318,0.147
					c0.647,2.07-5.751,4.611-6.063,3.804c-0.11-0.286,0.662-0.254,1.863-1.013c-1.301,0.57-2.789,1.145-2.957,0.571
					c-0.093-0.318,1.889-0.782,2.863-1.339c-1.207,0.365-3.341,1.094-3.384,0.673C363.196,478.135,365.31,477.854,366.418,477.232z"
					/>
				<path style="fill-rule:evenodd;clip-rule:evenodd;fill:#223857;" d="M348.307,414.182c-0.898-1.504-1.886-2.664-2.504-4.532
					c-2.307-6.971-1.682-14.876-3.631-19.809c0.901-0.976,1.723,0.081,3.394,0.328c1.936,8.094,5.783,18.003,7.211,20.847
					C353.945,413.344,349.517,415.985,348.307,414.182L348.307,414.182z M364.758,410.85c0.065,3.927-5.417,3.352-5.491,1.146
					c-0.09-2.669-0.18-3.474-0.322-4.719c-0.58-5.082,0.402-12.698-0.746-17.46c1.061-0.589,1.824,0.018,3.229,0.546
					C361.967,394.107,364.733,401.415,364.758,410.85z"/>
			</g>
		</g>
		
			<rect x="-0.12" y="252.724" style="opacity:0.5;fill-rule:evenodd;clip-rule:evenodd;fill:#C8D7FA;" width="750.241" height="247.356"/>
		<g>
			<path style="fill-rule:evenodd;clip-rule:evenodd;fill:#6C84CC;" d="M-0.12,197.414c8.385,3.296,18.04,5.779,29.902,6.612
				c48.773,3.428,54.7-14.994,80.778-15.284c24.485-0.272,19.607,13.822,62.91,15.584c27.816,1.132,50.031-34.885,85.459-35.296
				c29.29-0.34,66.385,40.621,97.372,41.818c24.103,0.931,44.416-20.614,72.369-21.927c13.742-0.645,56.323,19.802,84.637,18.692
				c57.997-2.273,84.811-41.621,125.468-39.512c71.877,3.727,72.605,32.253,111.346-0.975v70.209H113.852H70.496H-0.12V197.414z"/>
			<path style="fill-rule:evenodd;clip-rule:evenodd;fill:#6C84CC;" d="M154.251,208.819c0.74-1.372,1.445-6.417,1.656-11.015
				c-13.211-0.202-14.453-6.798-13.85-8.468c0.871-2.414,3.323-3.64,5.755-2.639c-5.134-7.193-3.674-16.232-0.898-18.254
				c2.296-1.673,6.211-1.16,7.914,1.102c1.512-5.254,7.025-5.332,9.194-4.263c4.731,2.332,6.194,10.514,0.108,17.714
				c2.65-1.506,6.578-0.64,7.806,1.117c2.153,3.078-2.311,12.88-13.576,13.645c0.227,4.231,0.716,9.239,1.63,10.717
				C161.149,210.346,153.522,210.173,154.251,208.819z"/>
			<path style="fill-rule:evenodd;clip-rule:evenodd;fill:#6C84CC;" d="M268.198,173.652c0.869-1.565,1.771-7.555,2.032-12.73
				c-13.093-0.857-18.529-13.647-14.931-17.663c1.245-1.39,5.558-1.768,8.24,0.074c-5.439-7.554-4.885-15.434-1.744-17.413
				c1.82-1.146,5.169-0.812,7.009,1.632c1.635-7.335,7.52-12.381,12.036-10.348c8.833,3.976,4.598,16.442-1.981,23.121
				c2.766-1.061,6.162-0.662,7.437,0.793c3.826,4.365-2.066,19.146-13.485,19.818c0.149,4.715,0.583,10.657,1.599,12.344
				C275.627,175.301,267.386,175.115,268.198,173.652z"/>
			<path style="fill-rule:evenodd;clip-rule:evenodd;fill:#6C84CC;" d="M293.826,187.14c0.825-1.529,1.611-7.155,1.846-12.282
				c-14.73-0.226-16.114-7.579-15.443-9.442c0.971-2.691,3.706-4.058,6.417-2.943c-5.725-8.02-4.096-18.098-1.002-20.352
				c2.56-1.865,6.926-1.294,8.824,1.228c1.686-5.858,7.833-5.945,10.251-4.754c5.275,2.6,6.906,11.723,0.12,19.75
				c2.955-1.679,7.334-0.714,8.704,1.245c2.4,3.432-2.577,14.36-15.137,15.215c0.253,4.718,0.799,10.301,1.818,11.949
				C301.517,188.841,293.013,188.649,293.826,187.14z"/>
			<path style="fill-rule:evenodd;clip-rule:evenodd;fill:#6C84CC;" d="M461.277,197.68c-0.792-1.469-1.547-6.871-1.773-11.794
				c14.145-0.217,15.475-7.279,14.829-9.067c-0.933-2.584-3.558-3.897-6.162-2.826c5.497-7.702,3.934-17.38,0.962-19.545
				c-2.458-1.791-6.651-1.242-8.474,1.18c-1.619-5.626-7.522-5.71-9.844-4.565c-5.066,2.497-6.632,11.257-0.115,18.966
				c-2.838-1.612-7.043-0.685-8.359,1.195c-2.305,3.296,2.475,13.79,14.536,14.611c-0.243,4.531-0.767,9.892-1.746,11.475
				C453.891,199.314,462.057,199.129,461.277,197.68z"/>
			<path style="fill-rule:evenodd;clip-rule:evenodd;fill:#6C84CC;" d="M599.357,165.593c-11.813-1-16.539-13.668-12.366-16.294
				c2.516-1.583,5.388-1.428,8.278,1.137c-2.742-10.465,3.278-19.784,11.819-15.062c4.695,2.596,1.818,14.433-2.051,21.427
				c2.639-3.295,7.517-4.839,8.559-2.399c1.854,4.346-0.564,11.226-12.074,11.267c-0.337,4.803,0.56,15.06,1.562,16.875
				c0.695,1.26-6.406,1.421-5.351-0.321C598.995,180.138,599.377,169.092,599.357,165.593z"/>
			<path style="fill-rule:evenodd;clip-rule:evenodd;fill:#6C84CC;" d="M581.88,188.891c0.693-1.286,1.354-6.015,1.552-10.325
				c-12.383-0.19-13.547-6.372-12.982-7.937c0.817-2.262,3.115-3.411,5.395-2.474c-4.812-6.742-3.444-15.214-0.842-17.11
				c2.152-1.568,5.822-1.087,7.418,1.033c1.417-4.925,6.585-4.998,8.618-3.996c4.435,2.186,5.806,9.854,0.101,16.603
				c2.484-1.411,6.166-0.6,7.317,1.047c2.018,2.885-2.167,12.072-12.725,12.79c0.213,3.966,0.671,8.659,1.529,10.045
				C588.346,190.321,581.196,190.159,581.88,188.891z"/>
			<path style="fill-rule:evenodd;clip-rule:evenodd;fill:#6C84CC;" d="M70.813,216.853c-0.963-1.734-1.962-8.371-2.251-14.105
				c14.507-0.95,20.53-15.121,16.544-19.571c-1.38-1.54-6.158-1.959-9.13,0.082c6.026-8.37,5.413-17.101,1.932-19.293
				c-2.016-1.27-5.727-0.9-7.766,1.809c-1.811-8.127-8.331-13.718-13.335-11.466c-9.787,4.405-5.094,18.217,2.195,25.617
				c-3.065-1.175-6.827-0.734-8.24,0.879c-4.239,4.836,2.289,21.213,14.941,21.957c-0.165,5.224-0.646,11.807-1.771,13.677
				C62.582,218.681,71.713,218.474,70.813,216.853z"/>
		</g>
		<path style="fill-rule:evenodd;clip-rule:evenodd;fill:#223857;" d="M-0.12,422.58c92.96,12.289,137.217-15.512,207.143-27.091
			c53.99-8.94,157.884-10.751,183.906-36.524c26.022-25.774-91.674-21.094-124.805-33.541
			C175.443,291.352,92.174,237.335-0.12,246.92V422.58z"/>
		<path style="fill-rule:evenodd;clip-rule:evenodd;fill:#223857;" d="M194.183,280.404c11.457-18.375-11.198-28.53-19.937-13.998
			c-6.189-9.807-17.874-2.779-17.401,5.943c-22.049-11.157-28.648,8.526-14.915,23.625c16.262,21.052,59.908,21.931,72.405,10.011
			C227.48,293.446,207.535,272.907,194.183,280.404z"/>
		<g>
			<path style="fill-rule:evenodd;clip-rule:evenodd;fill:#F7F9FF;" d="M422.81,55.66c-6.947,9.588-34.813,7.951-40.775,0
				c-13.236,2.83-22.482,0.438-22.702-3.2c-0.132-2.17,2.141-3.763,4.354-3.283c1.089-2.317,3.59-3.963,6.395-3.933
				c-1.7-6.486,4.912-14.311,17.166-8.548c0.773-3.454,6.527-5.756,9.889-3.402c9.28-9.602,27.285-7.378,31.677,5.269
				c3.487-0.842,7.414,2.169,8.486,6.696c2.611-0.828,5.547,1.616,5.928,4.186c2.331-1.101,7.84,0.666,7.866,3.187
				C451.159,59.004,432.977,59.63,422.81,55.66z"/>
			<path style="fill-rule:evenodd;clip-rule:evenodd;fill:#F7F9FF;" d="M610.451,90.451c-7.167,8.161-36.593,9.214-46.217,1.115
				c-6.145,2.793-16.351,1.734-16.586-1.683c-0.14-2.038,4.99-3.827,7.358-3.376c-1.538-12.733,15.971-18.143,24.384-14.111
				c7.176-9.478,19.122-5.906,19.824,1.964c5.12-1.318,14.471-0.096,16.398,10.451c3.047-1.378,8.601,1.055,8.629,3.423
				C624.286,92.158,617.56,93.684,610.451,90.451z"/>
			<path style="fill-rule:evenodd;clip-rule:evenodd;fill:#F7F9FF;" d="M141.683,103.111c8.452,9.152,31.581,6.145,37.239,0.319
				c4.591,2.822,15.487,2.1,15.765-1.732c0.166-2.285-5.883-4.291-8.677-3.786c5.936-7.711-2.337-15.274-12.632-10.087
				c-7.703-20.708-36.963-13.446-41.204-2.14c-6.038-1.478-15.547-1.349-17.819,10.479c-3.594-1.545-9.96,1.028-9.985,3.684
				C104.316,105.335,129.127,108.908,141.683,103.111z"/>
		</g>
		<path style="fill-rule:evenodd;clip-rule:evenodd;fill:#223857;" d="M750.12,358.808c-35.392-3.265-62.127-13.023-97.765-18.018
			c-40.418-5.666-118.195-6.813-137.676-23.147c-19.481-16.333,61.773-41.663,86.575-49.551
			c51.789-16.472,92.869-5.257,148.866-10.488V358.808z"/>
		<path style="fill-rule:evenodd;clip-rule:evenodd;fill:#192940;" d="M750.12,328.587V500.08c-250.08,0-500.16,0-750.241,0V368.514
			c92.307,3.476,154.754,93.788,249.426,93.587C344.056,461.899,617.862,335.93,750.12,328.587z"/>
		<path style="fill-rule:evenodd;clip-rule:evenodd;fill:#192940;" d="M105.89,396.548c6.201-25.119,29.827-13.924,26.71,4.768
			c14.737-6.768,31.075,3.783,16.872,17.069c18.486-2.474,29.447,21.889,10.375,28.96c-23.459,11.168-73.445-17.546-83.741-33.711
			C65.275,396.631,94.103,380.515,105.89,396.548z"/>
		<g>
			<g>
				<path style="fill-rule:evenodd;clip-rule:evenodd;fill:#4A6896;" d="M-0.12,167.734c35.69-1.202,73.275,51.482,105.011,53.732
					c27.753,1.968,52.048-24.096,87.476-24.508c29.29-0.34,62.33,36.806,93.317,38.003c24.103,0.931,44.416-20.614,72.369-21.927
					c13.742-0.645,56.323,19.802,84.637,18.692c57.997-2.274,84.811-41.622,125.468-39.513
					c37.885,1.965,49.702,32.539,97.892,35.926c25.249,1.775,53.061-37.704,84.07-40.24v73.549H-0.12V167.734z"/>
				<path style="fill-rule:evenodd;clip-rule:evenodd;fill:#4A6896;" d="M632.851,225.21c1.45-2.688,2.832-12.578,3.246-21.59
					c-25.893-0.397-28.327-13.324-27.146-16.597c1.707-4.731,6.513-7.134,11.281-5.173c-10.063-14.099-7.201-31.814-1.761-35.777
					c4.5-3.278,12.174-2.274,15.512,2.159c2.964-10.298,13.77-10.451,18.021-8.356c9.273,4.571,12.14,20.607,0.211,34.719
					c5.195-2.951,12.893-1.255,15.301,2.188c4.219,6.033-4.53,25.244-26.609,26.745c0.445,8.293,1.404,18.107,3.196,21.005
					C646.37,228.201,631.421,227.862,632.851,225.21z"/>
				<path style="fill-rule:evenodd;clip-rule:evenodd;fill:#4A6896;" d="M412.935,246.874c-1.45-2.688-2.832-12.578-3.246-21.59
					c25.893-0.397,28.327-13.324,27.146-16.597c-1.707-4.731-6.513-7.134-11.281-5.173c10.063-14.099,7.201-31.814,1.761-35.777
					c-4.5-3.278-12.174-2.274-15.512,2.159c-2.964-10.298-13.77-10.451-18.02-8.356c-9.273,4.571-12.14,20.606-0.211,34.719
					c-5.195-2.951-12.893-1.255-15.301,2.188c-4.219,6.033,4.53,25.244,26.608,26.745c-0.445,8.293-1.404,18.107-3.196,21.005
					C399.415,249.865,414.365,249.527,412.935,246.874z"/>
				<path style="fill-rule:evenodd;clip-rule:evenodd;fill:#4A6896;" d="M359.182,204.118
					c-23.005-1.947-32.207-26.617-24.081-31.731c4.899-3.084,10.492-2.78,16.12,2.215c-5.34-20.38,6.383-38.527,23.016-29.331
					c9.142,5.054,3.541,28.106-3.993,41.726c5.139-6.417,14.64-9.423,16.667-4.672c3.611,8.464-1.098,21.86-23.513,21.941
					c-0.656,9.353,1.091,29.328,3.042,32.863c1.354,2.454-12.475,2.768-10.42-0.626C358.478,232.444,359.22,210.932,359.182,204.118
					z"/>
				<path style="fill-rule:evenodd;clip-rule:evenodd;fill:#4A6896;" d="M496.337,189.931l-0.01-0.014
					c-0.125-0.169-0.248-0.339-0.37-0.51l-0.023-0.033c-0.117-0.166-0.232-0.332-0.345-0.499l-0.035-0.051
					c-0.108-0.161-0.214-0.322-0.318-0.483l-0.047-0.073c-0.101-0.157-0.199-0.315-0.296-0.473l-0.053-0.086
					c-0.093-0.152-0.184-0.305-0.273-0.458l-0.063-0.108c-0.087-0.149-0.171-0.298-0.254-0.448l-0.064-0.115
					c-0.081-0.147-0.16-0.295-0.238-0.443l-0.065-0.123c-0.075-0.145-0.149-0.289-0.221-0.434l-0.069-0.138
					c-0.068-0.137-0.134-0.275-0.199-0.412l-0.075-0.16c-0.062-0.133-0.122-0.266-0.182-0.399l-0.075-0.169
					c-0.057-0.13-0.112-0.259-0.166-0.388l-0.074-0.179c-0.052-0.126-0.102-0.252-0.152-0.378l-0.071-0.184
					c-0.047-0.124-0.094-0.247-0.139-0.37l-0.069-0.19c-0.043-0.121-0.085-0.242-0.125-0.362l-0.065-0.197
					c-0.037-0.113-0.073-0.226-0.108-0.339l-0.066-0.218c-0.033-0.109-0.065-0.219-0.095-0.327c-0.02-0.073-0.04-0.145-0.06-0.217
					c-0.029-0.106-0.057-0.212-0.083-0.317c-0.018-0.073-0.035-0.145-0.053-0.218c-0.025-0.105-0.05-0.209-0.073-0.313
					c-0.017-0.074-0.032-0.146-0.047-0.22c-0.021-0.099-0.041-0.198-0.06-0.297c-0.014-0.075-0.028-0.149-0.041-0.224
					c-0.017-0.098-0.034-0.194-0.05-0.291c-0.012-0.075-0.022-0.148-0.033-0.222c-0.013-0.092-0.027-0.184-0.039-0.276
					c-0.01-0.079-0.018-0.156-0.027-0.234c-0.009-0.086-0.019-0.172-0.027-0.256c-0.007-0.076-0.013-0.151-0.018-0.227
					c-0.007-0.087-0.013-0.173-0.017-0.258c-0.004-0.075-0.007-0.148-0.009-0.221c-0.003-0.081-0.006-0.163-0.008-0.243
					c-0.001-0.077,0-0.152,0-0.228c0.001-0.076,0.001-0.152,0.003-0.226c0.002-0.075,0.006-0.148,0.01-0.221
					c0.004-0.075,0.007-0.15,0.012-0.224c0.005-0.073,0.013-0.144,0.02-0.215c0.007-0.069,0.013-0.138,0.021-0.206
					c0.009-0.075,0.021-0.148,0.031-0.221c0.01-0.063,0.018-0.128,0.03-0.19c0.012-0.073,0.028-0.143,0.043-0.213
					c0.012-0.06,0.024-0.121,0.038-0.18c0.016-0.069,0.035-0.135,0.053-0.203c0.016-0.058,0.031-0.118,0.048-0.175
					c0.02-0.066,0.043-0.129,0.065-0.193c0.019-0.055,0.036-0.11,0.056-0.163c0.025-0.066,0.053-0.128,0.08-0.192
					c0.021-0.049,0.041-0.099,0.063-0.147c0.029-0.063,0.062-0.123,0.094-0.184c0.023-0.045,0.045-0.091,0.069-0.134
					c0.034-0.061,0.072-0.118,0.109-0.176c0.025-0.04,0.049-0.082,0.075-0.121c0.039-0.058,0.083-0.113,0.125-0.168
					c0.027-0.036,0.053-0.073,0.081-0.107c0.052-0.065,0.109-0.124,0.166-0.184c0.021-0.022,0.039-0.046,0.06-0.067
					c0.079-0.081,0.162-0.157,0.249-0.229c2.646-2.204,6.288-1.62,9.733,0.239c-0.115-0.124-0.23-0.25-0.344-0.377l-0.109-0.121
					c-0.09-0.101-0.181-0.202-0.271-0.304l-0.088-0.1c-0.113-0.128-0.225-0.257-0.337-0.387l-0.096-0.113
					c-0.086-0.1-0.172-0.201-0.257-0.302l-0.109-0.13c-0.095-0.113-0.189-0.226-0.283-0.34l-0.062-0.075
					c-0.111-0.134-0.22-0.27-0.33-0.406l-0.112-0.14c-0.077-0.096-0.153-0.192-0.229-0.289l-0.119-0.152
					c-0.094-0.121-0.188-0.243-0.282-0.366l-0.112-0.147c-0.082-0.109-0.164-0.217-0.245-0.327l-0.123-0.167
					c-0.066-0.09-0.132-0.18-0.198-0.271l-0.129-0.178c-0.093-0.13-0.186-0.26-0.277-0.391l-0.149-0.215l-0.154-0.224l-0.147-0.216
					l-0.162-0.242c-0.07-0.105-0.14-0.211-0.209-0.317c-0.063-0.096-0.125-0.192-0.187-0.289l-0.133-0.211l-0.145-0.231l-0.142-0.23
					l-0.12-0.197c-0.094-0.157-0.187-0.313-0.279-0.471l-0.092-0.158c-0.054-0.093-0.107-0.186-0.159-0.279l-0.086-0.154
					c-0.177-0.317-0.348-0.636-0.513-0.956l-0.076-0.149c-0.05-0.099-0.1-0.198-0.149-0.297l-0.048-0.098
					c-0.171-0.348-0.333-0.698-0.487-1.047l-0.026-0.059c-0.162-0.371-0.314-0.742-0.455-1.112l-0.004-0.009
					c-0.047-0.124-0.092-0.247-0.137-0.37l-0.01-0.03c-0.132-0.369-0.253-0.738-0.362-1.105l-0.01-0.033
					c-0.148-0.502-0.273-1.001-0.373-1.496l-0.001-0.003c-1.169-5.783,1.077-11.011,10.357-13.217
					c18.474-4.39,22.456,18.959,18.826,31.06c3.341-2.295,7.846-1.701,9.397-0.34c4.719,4.138-0.101,19.967-13.996,23.456
					l-0.044,0.012l-0.188,0.046c-0.086,0.02-0.171,0.041-0.257,0.06c-0.171,0.039-0.344,0.076-0.518,0.111l-0.212,0.042
					c-0.196,0.038-0.394,0.073-0.594,0.106l-0.148,0.024c-0.22,0.035-0.443,0.066-0.667,0.095l-0.099,0.012
					c-0.241,0.03-0.484,0.056-0.729,0.078l-0.058,0.005l-0.165,0.014c0.3,6.456,1.399,13.949,2.477,15.903
					c0.35,0.635-0.668,1.076-2.078,1.276l-0.005,0.001c-0.079,0.011-0.16,0.021-0.241,0.031l-0.008,0.001
					c-0.12,0.014-0.241,0.026-0.365,0.037l-0.042,0.003l-0.109,0.009l-0.026,0.002c-0.074,0.005-0.148,0.01-0.223,0.014
					l-0.051,0.002c-0.119,0.007-0.24,0.011-0.361,0.015l-0.047,0.001c-0.081,0.002-0.162,0.003-0.244,0.004h-0.005h-0.128h-0.027
					c-0.071-0.001-0.141-0.001-0.212-0.003l-0.055-0.001l-0.112-0.003l-0.051-0.002c-0.074-0.003-0.147-0.006-0.221-0.01
					l-0.019-0.001l-0.124-0.008l-0.06-0.004l-0.148-0.011l-0.092-0.008l-0.089-0.008l-0.132-0.013l-0.076-0.009l-0.109-0.013
					l-0.079-0.01l-0.14-0.02l-0.056-0.008l-0.116-0.019l-0.055-0.01c-0.05-0.009-0.098-0.018-0.146-0.027l-0.05-0.01l-0.108-0.023
					l-0.053-0.012c-0.047-0.01-0.093-0.022-0.139-0.033l-0.044-0.012l-0.108-0.029l-0.039-0.011
					c-0.045-0.013-0.089-0.026-0.132-0.04l-0.035-0.012c-0.04-0.013-0.079-0.027-0.117-0.04l-0.017-0.006
					c-0.042-0.015-0.082-0.031-0.121-0.047l-0.034-0.014c-0.035-0.015-0.069-0.03-0.102-0.045l-0.021-0.01
					c-0.034-0.017-0.068-0.033-0.1-0.051l-0.028-0.015c-0.069-0.038-0.133-0.079-0.192-0.121l-0.021-0.015
					c-0.029-0.021-0.056-0.043-0.081-0.065l-0.007-0.006c-0.023-0.021-0.045-0.041-0.065-0.063l-0.016-0.017
					c-0.022-0.023-0.042-0.047-0.061-0.072l-0.007-0.009c-0.017-0.022-0.032-0.046-0.046-0.069l-0.009-0.014
					c-0.014-0.025-0.027-0.052-0.038-0.078l-0.006-0.018c-0.009-0.023-0.017-0.047-0.023-0.072l-0.003-0.013
					c-0.007-0.027-0.011-0.056-0.014-0.085l-0.001-0.018c-0.002-0.026-0.002-0.053-0.001-0.08l0.001-0.012
					c0.002-0.03,0.006-0.061,0.012-0.092l0.005-0.022c0.007-0.029,0.014-0.058,0.024-0.088l0.003-0.01
					c0.011-0.033,0.025-0.066,0.041-0.1l0.01-0.021c0.017-0.034,0.035-0.069,0.057-0.105c0.019-0.031,0.037-0.064,0.056-0.097
					l0.017-0.032l0.038-0.072l0.019-0.039l0.036-0.074l0.018-0.039l0.035-0.078l0.022-0.05l0.026-0.062l0.027-0.066l0.029-0.075
					l0.019-0.049c0.034-0.091,0.068-0.187,0.101-0.286l0.01-0.029l0.04-0.125l0.01-0.034l0.039-0.13l0.008-0.027l0.043-0.152
					l0.003-0.008l0.046-0.167l0.003-0.01l0.042-0.162l0.006-0.023c0.061-0.245,0.121-0.505,0.178-0.778l0.004-0.019l0.039-0.193
					l0.002-0.009c0.027-0.138,0.054-0.28,0.081-0.424l0.002-0.012c0.04-0.218,0.078-0.442,0.115-0.673l0.007-0.045l0.03-0.187
					l0.006-0.038c0.023-0.151,0.046-0.304,0.068-0.46l0.002-0.016c0.046-0.323,0.09-0.655,0.132-0.995l0.008-0.069l0.022-0.178
					l0.007-0.06c0.03-0.255,0.059-0.514,0.087-0.777l0.001-0.005c0.038-0.357,0.074-0.722,0.109-1.09l0.003-0.032
					c0.015-0.159,0.029-0.319,0.043-0.48l0.012-0.136l0.002-0.024l0.031-0.375l0.03-0.376l0.009-0.122l0.01-0.138l0.013-0.176
					l0.005-0.071c0.023-0.32,0.046-0.641,0.067-0.964l0.008-0.131c0.047-0.734,0.088-1.47,0.124-2.197
					c0.029-0.596,0.055-1.186,0.077-1.763l0.001-0.035l0.017-0.463C505.141,198.708,499.901,194.732,496.337,189.931z"/>
				<path style="fill-rule:evenodd;clip-rule:evenodd;fill:#4A6896;" d="M536.627,204.252c1.265-2.277,2.576-10.992,2.956-18.522
					c-19.049-1.247-26.958-19.856-21.724-25.699c1.812-2.023,8.086-2.572,11.989,0.108c-7.913-10.991-7.107-22.456-2.537-25.334
					c2.648-1.668,7.52-1.182,10.198,2.375c2.378-10.672,10.94-18.013,17.511-15.056c12.852,5.785,6.689,23.921-2.883,33.638
					c4.024-1.543,8.965-0.963,10.82,1.154c5.567,6.35-3.005,27.856-19.619,28.833c0.217,6.86,0.848,15.505,2.326,17.96
					C547.435,206.652,535.445,206.381,536.627,204.252z"/>
				<path style="fill-rule:evenodd;clip-rule:evenodd;fill:#4A6896;" d="M177.168,175.903c-9.417-14.385-4.237-27.079,15.573-16.816
					c-9.355-10.129-10.349-23.196,4.487-26.643c17.962-4.173,24.508,15.065,20.101,29.755c4.056-2.786,9.525-2.064,11.408-0.413
					c5.729,5.024-0.123,24.239-16.99,28.474l-4.465,0.734c0.364,7.838,1.698,16.933,3.007,19.306
					c0.845,1.531-4.406,1.738-5.617,1.671c-0.997-0.055-4.87-0.427-3.772-2.235c1.864-3.071,2.361-15.266,2.484-18.692
					C195.805,190.533,181.144,181.977,177.168,175.903z"/>
				<path style="fill-rule:evenodd;clip-rule:evenodd;fill:#4A6896;" d="M238.172,221.518c1.112-2.063,2.173-9.652,2.491-16.568
					c-19.87-0.305-21.738-10.225-20.832-12.737c1.31-3.63,4.999-5.474,8.657-3.97c-7.723-10.82-5.526-24.414-1.352-27.456
					c3.454-2.516,9.343-1.745,11.904,1.657c2.274-7.903,10.567-8.02,13.829-6.413c7.116,3.508,9.317,15.814,0.162,26.643
					c3.987-2.264,9.894-0.963,11.742,1.68c3.238,4.63-3.477,19.372-20.419,20.524c0.342,6.364,1.077,13.896,2.453,16.12
					C248.548,223.813,237.075,223.553,238.172,221.518z"/>
			</g>
			<path style="fill-rule:evenodd;clip-rule:evenodd;fill:#4A6896;" d="M294.24,226.636c2.592-15.407-10.33-8.251-10.364-0.18
				c-2.463-4.045-7.007-3.416-7.523,1.734c-7.494-5.276-13.56,3.176-9.723,6.712c6.444,7.086,27.505,3.594,33.543,0.11
				C307.742,230.645,306.447,221.897,294.24,226.636z"/>
			<path style="fill-rule:evenodd;clip-rule:evenodd;fill:#4A6896;" d="M489.056,213.946c-6.238-6.155,1.723-12.284,6.531-7.386
				c1.513-4.443,6.775-2.776,7.409,0.702c7.629-6.466,12.079,0.66,8.094,7.896c-4.42,9.817-21.518,14.27-27.559,10.754
				C477.177,222.213,483.095,212.252,489.056,213.946z"/>
		</g>
		<path style="fill-rule:evenodd;clip-rule:evenodd;fill:#223857;" d="M550.81,299.804c-1.709-3.17-3.34-14.831-3.828-25.458
			c30.533-0.468,33.404-15.712,32.011-19.572c-2.013-5.578-7.681-8.412-13.302-6.1c11.866-16.626,8.491-37.516,2.077-42.189
			c-5.307-3.866-14.356-2.681-18.292,2.547c-3.495-12.144-16.237-12.324-21.25-9.854c-10.934,5.39-14.316,24.299-0.249,40.94
			c-6.126-3.48-15.203-1.479-18.042,2.581c-4.976,7.114,5.342,29.768,31.377,31.538c-0.525,9.779-1.656,21.353-3.769,24.769
			C534.867,303.331,552.496,302.932,550.81,299.804z"/>
		<path style="fill-rule:evenodd;clip-rule:evenodd;fill:#223857;" d="M143.553,281.304c-2.677-4.966-5.232-23.233-5.996-39.88
			c47.829-0.733,52.326-24.612,50.144-30.658c-3.154-8.738-12.032-13.177-20.838-9.555c18.588-26.044,13.301-58.767,3.253-66.088
			c-8.312-6.055-22.488-4.2-28.653,3.989c-5.475-19.023-25.435-19.306-33.288-15.436c-17.128,8.443-22.425,38.064-0.389,64.132
			c-9.596-5.451-23.816-2.318-28.263,4.042c-7.794,11.144,8.368,46.63,49.151,49.404c-0.822,15.319-2.593,33.448-5.904,38.801
			C118.579,286.83,146.194,286.204,143.553,281.304z"/>
		<path style="fill-rule:evenodd;clip-rule:evenodd;fill:#192940;" d="M629.806,362.582c3.454-6.219,7.035-30.022,8.073-50.586
			c-52.026-3.406-73.627-54.229-59.332-70.188c4.948-5.524,22.085-7.026,32.744,0.296c-21.613-30.019-19.412-61.33-6.93-69.192
			c7.231-4.554,20.539-3.228,27.852,6.487c6.495-29.147,29.879-49.198,47.824-41.12c35.1,15.799,18.27,65.333-7.872,91.872
			c10.991-4.215,24.484-2.63,29.552,3.151c15.203,17.344-8.209,76.079-53.584,78.747c0.592,18.737,2.316,42.346,6.353,49.051
			C659.326,369.137,626.577,368.395,629.806,362.582z"/>
		<g>
			<defs>
				<rect id="SVGID_1_" x="-0.12" y="59.85" width="68.388" height="212.997"/>
			</defs>
			<clipPath id="SVGID_00000115481992864017897090000014469315662487293611_">
				<use xlink:href="#SVGID_1_"  style="overflow:visible;"/>
			</clipPath>
			<g style="clip-path:url(#SVGID_00000115481992864017897090000014469315662487293611_);">
				<path style="fill-rule:evenodd;clip-rule:evenodd;fill:#223857;" d="M16.459,268.736c-3.192-5.746-6.5-27.738-7.459-46.738
					c48.069-3.147,68.027-50.104,54.819-64.849c-4.571-5.104-20.405-6.492-30.253,0.273c19.969-27.735,17.935-56.665,6.403-63.929
					c-6.681-4.208-18.976-2.983-25.733,5.993C8.235,72.557-13.37,54.031-29.951,61.494c-32.43,14.597-16.88,60.364,7.274,84.884
					c-10.155-3.894-22.622-2.43-27.305,2.911c-14.047,16.025,7.584,70.292,49.508,72.757c-0.547,17.311-2.14,39.125-5.87,45.32
					C-10.815,274.792,19.442,274.107,16.459,268.736z"/>
			</g>
		</g>
		<g>
			<defs>
				<rect id="SVGID_00000031903460521700134490000001187215751085207961_" x="668.528" y="93.03" width="81.592" height="260.968"/>
			</defs>
			<clipPath id="SVGID_00000013178570819266086920000011208063285941113475_">
				<use xlink:href="#SVGID_00000031903460521700134490000001187215751085207961_"  style="overflow:visible;"/>
			</clipPath>
			<g style="clip-path:url(#SVGID_00000013178570819266086920000011208063285941113475_);">
				<path style="fill-rule:evenodd;clip-rule:evenodd;fill:#192940;" d="M687.909,256.378l-0.035-0.048
					c-0.437-0.59-0.867-1.183-1.29-1.78l-0.082-0.114c-0.408-0.578-0.808-1.158-1.203-1.741l-0.121-0.178
					c-0.377-0.56-0.746-1.122-1.11-1.686l-0.165-0.254c-0.351-0.548-0.695-1.098-1.034-1.65l-0.185-0.299
					c-0.325-0.532-0.642-1.065-0.955-1.6l-0.221-0.376c-0.302-0.52-0.596-1.041-0.887-1.564l-0.222-0.4
					c-0.283-0.515-0.56-1.029-0.832-1.544l-0.226-0.429c-0.263-0.504-0.521-1.008-0.773-1.513l-0.241-0.483
					c-0.236-0.479-0.467-0.958-0.694-1.438l-0.263-0.559c-0.216-0.465-0.428-0.929-0.635-1.393l-0.261-0.59
					c-0.198-0.452-0.391-0.904-0.581-1.354l-0.258-0.624c-0.181-0.44-0.357-0.88-0.529-1.319l-0.249-0.642
					c-0.165-0.432-0.326-0.862-0.483-1.292l-0.239-0.665c-0.15-0.422-0.296-0.843-0.438-1.263l-0.228-0.688
					c-0.13-0.396-0.256-0.789-0.378-1.183l-0.23-0.759c-0.115-0.383-0.226-0.763-0.333-1.143c-0.071-0.253-0.14-0.505-0.208-0.757
					c-0.1-0.37-0.197-0.739-0.29-1.105c-0.064-0.254-0.124-0.507-0.186-0.759c-0.088-0.365-0.174-0.731-0.255-1.093
					c-0.057-0.257-0.11-0.512-0.165-0.768c-0.073-0.346-0.144-0.693-0.21-1.036c-0.05-0.262-0.097-0.521-0.143-0.781
					c-0.061-0.34-0.12-0.678-0.174-1.015c-0.041-0.26-0.078-0.517-0.116-0.774c-0.047-0.322-0.093-0.644-0.134-0.963
					c-0.035-0.275-0.064-0.545-0.094-0.818c-0.033-0.299-0.067-0.599-0.094-0.894c-0.024-0.266-0.044-0.528-0.063-0.791
					c-0.023-0.301-0.045-0.602-0.061-0.899c-0.015-0.26-0.022-0.516-0.031-0.772c-0.01-0.284-0.022-0.569-0.026-0.849
					c-0.005-0.268-0.001-0.53,0-0.794c0.001-0.264,0.002-0.529,0.008-0.788c0.007-0.26,0.021-0.515,0.034-0.772
					c0.013-0.261,0.024-0.523,0.042-0.78c0.018-0.254,0.045-0.502,0.069-0.752c0.023-0.24,0.044-0.482,0.073-0.718
					c0.031-0.262,0.072-0.516,0.111-0.772c0.033-0.222,0.064-0.446,0.102-0.664c0.044-0.253,0.098-0.498,0.15-0.745
					c0.044-0.21,0.084-0.422,0.132-0.627c0.057-0.241,0.123-0.473,0.187-0.708c0.055-0.204,0.107-0.411,0.167-0.61
					c0.07-0.23,0.15-0.451,0.227-0.674c0.065-0.191,0.126-0.384,0.196-0.57c0.086-0.229,0.184-0.447,0.278-0.668
					c0.073-0.17,0.141-0.344,0.218-0.511c0.102-0.221,0.216-0.43,0.327-0.642c0.081-0.156,0.157-0.316,0.242-0.468
					c0.12-0.212,0.252-0.412,0.379-0.615c0.088-0.14,0.171-0.285,0.263-0.421c0.137-0.203,0.289-0.393,0.435-0.585
					c0.094-0.124,0.183-0.254,0.281-0.374c0.183-0.226,0.381-0.435,0.578-0.645c0.072-0.076,0.138-0.159,0.211-0.233
					c0.275-0.282,0.566-0.547,0.869-0.799c9.233-7.69,21.937-5.652,33.956,0.834c-0.401-0.434-0.802-0.873-1.201-1.315l-0.381-0.423
					c-0.316-0.35-0.63-0.704-0.945-1.059l-0.307-0.347c-0.393-0.447-0.786-0.896-1.177-1.349l-0.336-0.392
					c-0.3-0.349-0.598-0.7-0.896-1.053l-0.38-0.452c-0.33-0.394-0.659-0.79-0.988-1.188l-0.216-0.261
					c-0.385-0.469-0.768-0.943-1.15-1.418l-0.39-0.488c-0.267-0.335-0.533-0.671-0.798-1.009l-0.415-0.53
					c-0.329-0.424-0.658-0.848-0.984-1.277l-0.39-0.514c-0.286-0.379-0.571-0.758-0.855-1.14l-0.43-0.582
					c-0.232-0.314-0.462-0.63-0.691-0.945l-0.451-0.622c-0.325-0.453-0.648-0.907-0.968-1.363l-0.52-0.749l-0.538-0.781
					l-0.514-0.756l-0.566-0.845c-0.244-0.367-0.487-0.735-0.727-1.104c-0.218-0.335-0.436-0.67-0.652-1.007l-0.465-0.736
					l-0.506-0.807l-0.497-0.804l-0.417-0.688c-0.329-0.546-0.653-1.093-0.973-1.641l-0.32-0.549
					c-0.187-0.325-0.372-0.65-0.555-0.976l-0.3-0.535c-0.617-1.108-1.214-2.22-1.788-3.334l-0.266-0.52
					c-0.175-0.345-0.349-0.691-0.519-1.036l-0.167-0.342c-0.596-1.216-1.163-2.434-1.699-3.652l-0.09-0.205
					c-0.565-1.294-1.095-2.588-1.587-3.88l-0.012-0.032c-0.164-0.431-0.323-0.861-0.478-1.291l-0.037-0.103
					c-0.462-1.289-0.883-2.574-1.264-3.855l-0.034-0.115c-0.517-1.751-0.952-3.492-1.302-5.22l-0.002-0.01
					c-4.08-20.175,3.757-38.414,36.133-46.111c64.449-15.317,78.341,66.14,65.676,108.357c11.655-8.007,27.371-5.932,32.783-1.188
					c16.465,14.438-0.353,69.661-48.826,81.83l-0.152,0.043l-0.657,0.161c-0.298,0.071-0.598,0.141-0.898,0.21
					c-0.597,0.135-1.198,0.264-1.805,0.387l-0.741,0.146c-0.684,0.131-1.375,0.254-2.071,0.368l-0.517,0.083
					c-0.768,0.121-1.544,0.232-2.327,0.331l-0.345,0.043c-0.839,0.103-1.687,0.194-2.542,0.272l-0.202,0.018l-0.574,0.049
					c1.045,22.524,4.879,48.664,8.642,55.481c1.222,2.214-2.329,3.755-7.25,4.452l-0.016,0.002
					c-0.277,0.038-0.557,0.075-0.842,0.109l-0.027,0.003c-0.418,0.049-0.844,0.092-1.275,0.13l-0.145,0.012l-0.379,0.03
					l-0.089,0.007c-0.256,0.019-0.516,0.035-0.776,0.05l-0.176,0.009c-0.417,0.022-0.838,0.039-1.26,0.05l-0.164,0.004
					c-0.282,0.007-0.566,0.012-0.849,0.013h-0.017h-0.446l-0.094-0.001c-0.247-0.001-0.493-0.005-0.739-0.01l-0.193-0.004
					l-0.39-0.011l-0.179-0.007c-0.258-0.009-0.514-0.02-0.77-0.034l-0.066-0.003l-0.432-0.026l-0.208-0.014l-0.517-0.039
					l-0.321-0.027l-0.309-0.029l-0.458-0.047l-0.264-0.03l-0.38-0.046l-0.275-0.035l-0.49-0.07l-0.193-0.03l-0.407-0.066
					l-0.193-0.033c-0.172-0.03-0.343-0.062-0.511-0.095l-0.174-0.035l-0.375-0.079l-0.184-0.04
					c-0.164-0.037-0.324-0.076-0.484-0.116l-0.155-0.04l-0.376-0.102l-0.138-0.039c-0.157-0.045-0.31-0.092-0.46-0.14l-0.123-0.04
					c-0.139-0.046-0.276-0.093-0.409-0.141l-0.06-0.022c-0.145-0.054-0.286-0.108-0.424-0.165l-0.117-0.048
					c-0.122-0.052-0.241-0.105-0.356-0.158l-0.074-0.034c-0.121-0.058-0.237-0.117-0.35-0.177l-0.098-0.052
					c-0.242-0.133-0.466-0.274-0.669-0.421l-0.073-0.053c-0.1-0.074-0.195-0.149-0.284-0.227l-0.024-0.022
					c-0.08-0.072-0.156-0.144-0.228-0.218l-0.057-0.059c-0.076-0.082-0.147-0.165-0.212-0.25l-0.024-0.033
					c-0.058-0.078-0.111-0.159-0.159-0.24l-0.029-0.049c-0.05-0.088-0.094-0.179-0.133-0.271l-0.023-0.061
					c-0.031-0.083-0.059-0.166-0.08-0.251l-0.012-0.046c-0.023-0.097-0.039-0.196-0.048-0.297l-0.005-0.065
					c-0.006-0.091-0.007-0.184-0.002-0.279l0.002-0.042c0.007-0.105,0.022-0.212,0.044-0.321l0.017-0.077
					c0.023-0.1,0.05-0.202,0.084-0.305l0.011-0.035c0.04-0.114,0.089-0.23,0.144-0.348l0.036-0.075
					c0.058-0.12,0.123-0.242,0.198-0.365c0.066-0.108,0.131-0.221,0.196-0.338l0.06-0.113l0.132-0.25l0.067-0.134l0.126-0.259
					l0.063-0.134l0.123-0.274l0.076-0.175l0.091-0.218l0.094-0.231l0.102-0.263l0.066-0.17c0.119-0.318,0.236-0.651,0.352-0.998
					l0.033-0.102l0.14-0.437l0.036-0.118l0.137-0.453l0.028-0.095l0.152-0.531l0.009-0.03l0.159-0.584l0.009-0.036l0.146-0.564
					l0.021-0.082c0.215-0.856,0.422-1.763,0.62-2.716l0.014-0.067l0.137-0.672l0.006-0.031c0.096-0.483,0.19-0.977,0.282-1.48
					l0.007-0.041c0.138-0.76,0.272-1.543,0.402-2.347l0.025-0.159l0.103-0.651l0.02-0.134c0.081-0.527,0.161-1.061,0.239-1.604
					l0.008-0.056c0.161-1.126,0.314-2.285,0.461-3.472l0.029-0.24l0.075-0.62l0.025-0.209c0.106-0.89,0.207-1.795,0.305-2.712
					l0.002-0.017c0.133-1.247,0.259-2.517,0.379-3.803l0.01-0.113c0.051-0.555,0.102-1.114,0.15-1.674l0.041-0.473l0.007-0.082
					l0.109-1.309l0.105-1.313l0.033-0.427l0.037-0.483l0.046-0.614l0.018-0.247c0.082-1.117,0.161-2.239,0.234-3.362l0.029-0.456
					c0.165-2.561,0.308-5.128,0.432-7.663c0.102-2.081,0.19-4.138,0.267-6.151l0.005-0.122l0.058-1.614
					C718.626,286.999,700.343,273.13,687.909,256.378z"/>
			</g>
		</g>
		<path style="fill-rule:evenodd;clip-rule:evenodd;fill:#192940;" d="M119.156,414.871c-3.661-7.382-7.155-34.534-8.2-59.279
			c65.41-1.09,78.027-46.144,75.042-55.131c-4.312-12.989-17.585-16.162-31.309-15.047c61.815-87.288-32.208-106.184-39.031-57.102
			c-25.689-50.317-91.306-9.181-45.416,47.584c-13.124-8.102-32.57-3.445-38.652,6.009C20.93,298.47,43.034,351.217,98.807,355.34
			c-1.124,22.771-3.546,49.718-8.074,57.674C85.003,423.085,122.767,422.155,119.156,414.871z"/>
		<path style="fill-rule:evenodd;clip-rule:evenodd;fill:#192940;" d="M558.86,353.665c-16.64-38.184,21.401-28.007,26.693-7.151
			c3.763-12.052,15.923-13.357,20.579-0.365c15.984-18.481,37.125-0.53,29.48,11.094c-12.101,22.487-71.506,37.427-88.835,30.713
			C528.549,380.894,534.232,343.635,558.86,353.665z"/>
		<g>
			<defs>
				
					<rect id="SVGID_00000131325016553409288720000002537636328744400021_" x="-0.12" y="377.147" width="750.241" height="122.933"/>
			</defs>
			<clipPath id="SVGID_00000016769392327859923450000009164294608036894366_">
				<use xlink:href="#SVGID_00000131325016553409288720000002537636328744400021_"  style="overflow:visible;"/>
			</clipPath>
			<g style="clip-path:url(#SVGID_00000016769392327859923450000009164294608036894366_);">
				<g>
					<path style="fill-rule:evenodd;clip-rule:evenodd;fill:#131C2C;" d="M-45.493,448.929
						c-12.167-59.972,49.714-61.383,61.97-18.353c24.674-30.091,70.311-25.099,53.377,18.269
						c37.044-24.969,85.161,15.098,51.517,50.457C82.493,548.04-53.52,540.345-91.913,516.985
						C-132.3,492.413-86.942,427.439-45.493,448.929z"/>
					<path style="fill-rule:evenodd;clip-rule:evenodd;fill:#131C2C;" d="M724.779,442.862c6.451-78.012-60.591-77.782-64.255-6.656
						c-25.871-13.279-47.01,14.094-36.384,31.478c-66.372,1.517-61.267,49.236-11.089,65.023
						c62.861,25.209,171.245-21.333,189.075-59.648C820.883,432.754,749.512,412.68,724.779,442.862z"/>
				</g>
			</g>
		</g>
		<path style="fill-rule:evenodd;clip-rule:evenodd;fill:#6C84CC;" d="M305.305,183.373c0.757-5.346,6.712-3.654,6.052,0.522
			c2.754-0.881,3.859,2.334,2.371,3.924c6,1.403,4.105,6.22-0.938,6.903c-6.481,1.414-14.958-5.414-15.434-9.694
			C296.854,180.527,303.956,179.801,305.305,183.373z"/>
		<g>
			<path style="fill-rule:evenodd;clip-rule:evenodd;fill:#223857;" d="M366.608,264.06c-0.566-2.227-1.287-2.663-3.313-3.904
				c-5.331-0.93-12.101,0.314-14.097,1.485c-3.926,2.304-0.174,5.001,3.21,10.394c0.547,0.872,1.752,3.719,1.838,5.049
				c0.353,5.466-1.558,4.769-3.939,12.154c-1.861,5.772-1.477,20.695-2.46,23.402c-1.555,4.286,2.914,6.389,4.275,3.566
				c3.622-7.511,4.976-10.914,7.006-19.091c-0.401,6.288,0.359,9.454,0.154,15.828c-0.225,6.983,5.321,6.464,5.476,1.638
				c0.059-1.83,5.26-15.996,4.371-24.691c-0.582-5.694-1.5-10.954-1.897-12.587C365.817,271.492,366.64,264.186,366.608,264.06z"/>
			<path style="fill-rule:evenodd;clip-rule:evenodd;fill:#223857;" d="M357.684,261.252c1.775,0,2.593-1.155,3.655-1.964
				c1.062-0.81,2.023-0.58,2.885-1.514c0.862-0.934,0.832-2.204,0.832-3.372c0-1.168,1.372-1.788,1.372-3.699
				c0-1.912-1.575-2.817-1.884-3.701c-0.31-0.883,0.014-1.586-0.979-2.685c-0.656-0.727-1.982-0.892-2.702-1.126
				c-0.712-0.231-1.545-1.087-3.137-0.966c-1.261,0.096-1.993,0.792-2.481,0.945c-0.73,0.229-2.649,0.069-3.39,0.837
				c-0.977,1.013-0.727,1.741-1.491,3.04c-0.764,1.299-2.013,1.966-2.013,3.877c0,1.912,1.649,2.31,1.649,3.478
				c0,1.168,0.074,2.367,0.868,3.233c0.794,0.866,1.567,0.511,2.96,1.321C355.221,259.765,355.578,261.252,357.684,261.252z"/>
			<path style="fill-rule:evenodd;clip-rule:evenodd;fill:#223857;" d="M367.012,264.681c4.144-1.527,7.12-2.946,10.693-5.085
				c1.814-1.086,0.592-3.863-1.828-3.148c-1.998,0.59-6.877,2.644-9.982,2.733c-1.831,0.052-3.799,0.785-5.148,2.157
				C357.94,264.225,360.775,266.982,367.012,264.681z"/>
			<path style="fill-rule:evenodd;clip-rule:evenodd;fill:#223857;" d="M358.554,271.238c1.17-2.777,1.345-5.274,0.875-6.362
				C360.608,267.142,361.206,269.863,358.554,271.238z"/>
			<path style="fill-rule:evenodd;clip-rule:evenodd;fill:#223857;" d="M364.289,273.59c-2.17,0.392-2.953-0.301-3.948-0.241
				c-0.994,0.06-2.592,1.085-5.455,0.723C356.845,275.006,362.511,275.067,364.289,273.59z"/>
			<path style="fill-rule:evenodd;clip-rule:evenodd;fill:#223857;" d="M361.709,333.573c-0.596,2.93-0.289,5.454,0.394,7.873
				c0.683,2.419-5.475,2.316-5.376,0.285c0.098-2.03,1.329-4.018,1.834-8.243C359.027,329.578,362.431,330.019,361.709,333.573z"/>
			<path style="fill-rule:evenodd;clip-rule:evenodd;fill:#223857;" d="M350.552,268.515c-2.991,3.25-4.896,4.662-8.235,7.151
				c-1.695,1.264-3.797-0.923-2.214-2.889c1.307-1.623,4.923-4.765,6.188-7.602c0.746-1.674,2.079-3.307,3.861-4.033
				C353.75,259.678,354.984,263.639,350.552,268.515z"/>
			<path style="fill-rule:evenodd;clip-rule:evenodd;fill:#223857;" d="M345.852,333.021c-0.81,3.392-0.593,6.185-0.644,8.463
				c-0.05,2.278-5.674,2.065-5.427,0.286c0.247-1.779,1.514-4.194,2.924-8.819C344.114,328.326,346.872,329.433,345.852,333.021z"/>
			<path style="fill-rule:evenodd;clip-rule:evenodd;fill:#223857;" d="M350.585,284.373c-2.689-1-8.236-5.94-10.455-8.658
				c-1.537-1.883,0.791-4.676,2.721-2.931c3.251,2.939,7.461,8.582,9.155,9.897C352.371,283.681,351.899,283.745,350.585,284.373z"
				/>
			<path style="fill-rule:evenodd;clip-rule:evenodd;fill:#223857;" d="M370.071,247.96c2.755,1.507,5.988,4.607,8.306,7.241
				c1.606,1.825,0.243,5.242-1.75,3.57c-3.357-2.817-6.185-8.129-7.926-9.381C368.693,248.834,369.29,248.278,370.071,247.96z"/>
			<path style="fill-rule:evenodd;clip-rule:evenodd;fill:#223857;" d="M355.141,255.51l4.365-0.52l0.601,5.375
				c0.249,2.234-4.13,2.621-4.365,0.52L355.141,255.51z"/>
			<path style="fill-rule:evenodd;clip-rule:evenodd;fill:#223857;" d="M355.347,256.95l4.456,0.292l0.015,0.538
				c-0.71,1.601-2.537,2.011-4.165,2.221L355.347,256.95z"/>
			<path style="fill-rule:evenodd;clip-rule:evenodd;fill:#223857;" d="M357.512,243.955c8.229-0.297,6.689,14.52,0.626,14.326
				C351.656,258.074,348.568,244.278,357.512,243.955z"/>
			<path style="fill-rule:evenodd;clip-rule:evenodd;fill:#223857;" d="M353.665,284.819c1.314,0.908,2.566,1.573,2.697,1.201
				c0.202-0.573-2.093-1.616-2.781-2.566c0.401,0.194,1.098,0.49,1.246,0.253c0.512-0.816-4.431-2.422-5.148-1.339
				c-1.198,1.807,4.239,6.03,4.763,5.341c0.186-0.244-0.565-0.428-1.507-1.492c1.09,0.91,2.36,1.876,2.681,1.372
				c0.178-0.28-1.597-1.277-2.377-2.084c1.058,0.687,2.905,1.981,3.063,1.589C356.508,286.584,354.555,285.726,353.665,284.819z"/>
			<path style="fill-rule:evenodd;clip-rule:evenodd;fill:#223857;" d="M366.418,248.2c-1.515-0.506-2.902-0.797-2.925-0.402
				c-0.035,0.607,2.46,0.969,3.386,1.691c-0.439-0.075-1.191-0.165-1.268,0.104c-0.264,0.926,4.93,1.092,5.318-0.147
				c0.647-2.069-5.751-4.611-6.063-3.803c-0.11,0.286,0.662,0.254,1.863,1.013c-1.301-0.57-2.789-1.145-2.957-0.571
				c-0.093,0.318,1.889,0.782,2.863,1.339c-1.207-0.365-3.341-1.094-3.384-0.673C363.196,247.296,365.31,247.577,366.418,248.2z"/>
			<path style="fill-rule:evenodd;clip-rule:evenodd;fill:#223857;" d="M348.307,311.249c-0.898,1.503-1.886,2.664-2.504,4.532
				c-2.307,6.971-1.682,14.876-3.631,19.809c0.901,0.976,1.723-0.081,3.394-0.328c1.936-8.094,5.783-18.003,7.211-20.847
				C353.945,312.087,349.517,309.446,348.307,311.249L348.307,311.249z M364.758,314.582c0.065-3.927-5.417-3.352-5.491-1.146
				c-0.09,2.669-0.18,3.474-0.322,4.719c-0.58,5.082,0.402,12.698-0.746,17.46c1.061,0.589,1.824-0.018,3.229-0.547
				C361.967,331.325,364.733,324.016,364.758,314.582z"/>
		</g>
		<g>
			<defs>
				<rect id="SVGID_00000124133196960319029710000004440773723152945024_" x="-0.12" y="129.966" width="81.592" height="260.968"/>
			</defs>
			<clipPath id="SVGID_00000083810423118204885800000003495427009203409069_">
				<use xlink:href="#SVGID_00000124133196960319029710000004440773723152945024_"  style="overflow:visible;"/>
			</clipPath>
			<g style="clip-path:url(#SVGID_00000083810423118204885800000003495427009203409069_);">
				<path style="fill-rule:evenodd;clip-rule:evenodd;fill:#192940;" d="M-69.425,237.515l3.586-4.783
					c9.233-7.69,21.937-5.652,33.956,0.834c-91.029-98.562,103.962-143.533,63.275-27.17
					c49.476-36.272,77.778,62.457-21.486,104.094c1.045,22.525,4.879,63.439,8.642,70.256c2.429,4.401-12.662,4.994-16.144,4.802
					c-2.865-0.159-13.996-1.227-10.84-6.424c5.358-8.825,6.785-58.647,7.139-68.494C-37.913,308.159-83.681,268.324-69.425,237.515z
					"/>
			</g>
		</g>
	</g>
</g>
</svg>
